<?xml version="1.0" encoding="UTF-8"?>
<svg xmlns="http://www.w3.org/2000/svg" xmlns:xlink="http://www.w3.org/1999/xlink" width="11px" height="11px" viewBox="0 0 11 11" version="1.1">
<g id="surface1">
<path style=" stroke:none;fill-rule:nonzero;fill:rgb(49.019608%,43.137255%,90.588235%);fill-opacity:1;" d="M 2.199219 0 L 8.800781 0 C 10.015625 0 11 0.984375 11 2.199219 L 11 8.800781 C 11 10.015625 10.015625 11 8.800781 11 L 2.199219 11 C 0.984375 11 0 10.015625 0 8.800781 L 0 2.199219 C 0 0.984375 0.984375 0 2.199219 0 Z M 2.199219 0 "/>
<path style=" stroke:none;fill-rule:nonzero;fill:rgb(100%,100%,100%);fill-opacity:1;" d="M 2.496094 8.304688 C 1.972656 8.304688 1.519531 8.210938 1.128906 8.019531 C 0.742188 7.828125 0.445312 7.554688 0.238281 7.203125 C 0.03125 6.851562 -0.0703125 6.441406 -0.0703125 5.976562 C -0.0703125 5.328125 0.0507812 4.753906 0.296875 4.253906 C 0.539062 3.75 0.871094 3.363281 1.289062 3.085938 C 1.707031 2.8125 2.171875 2.675781 2.683594 2.675781 C 3.15625 2.675781 3.519531 2.796875 3.765625 3.042969 C 4.011719 3.285156 4.132812 3.609375 4.132812 4.007812 C 4.132812 4.277344 4.085938 4.492188 3.992188 4.65625 C 3.898438 4.816406 3.761719 4.898438 3.585938 4.898438 C 3.460938 4.898438 3.367188 4.871094 3.296875 4.8125 C 3.226562 4.757812 3.191406 4.671875 3.191406 4.5625 C 3.191406 4.523438 3.199219 4.449219 3.214844 4.34375 C 3.242188 4.214844 3.257812 4.105469 3.257812 4.027344 C 3.257812 3.628906 3.042969 3.425781 2.617188 3.425781 C 2.324219 3.425781 2.046875 3.523438 1.785156 3.710938 C 1.519531 3.902344 1.308594 4.179688 1.144531 4.546875 C 0.980469 4.914062 0.898438 5.351562 0.898438 5.855469 C 0.898438 6.382812 1.046875 6.792969 1.34375 7.082031 C 1.636719 7.367188 2.074219 7.511719 2.648438 7.511719 C 2.933594 7.511719 3.222656 7.476562 3.515625 7.402344 C 3.808594 7.332031 4.132812 7.21875 4.488281 7.070312 C 4.554688 7.042969 4.609375 7.03125 4.65625 7.03125 C 4.726562 7.03125 4.777344 7.058594 4.8125 7.109375 C 4.847656 7.164062 4.867188 7.230469 4.867188 7.316406 C 4.867188 7.582031 4.722656 7.78125 4.429688 7.910156 C 4.117188 8.046875 3.792969 8.144531 3.457031 8.210938 C 3.121094 8.273438 2.800781 8.304688 2.496094 8.304688 Z M 10.886719 6.800781 C 10.941406 6.800781 10.988281 6.828125 11.019531 6.878906 C 11.054688 6.933594 11.070312 7.003906 11.070312 7.097656 C 11.070312 7.269531 11.027344 7.40625 10.945312 7.507812 C 10.734375 7.761719 10.519531 7.957031 10.304688 8.097656 C 10.089844 8.234375 9.835938 8.304688 9.539062 8.304688 C 9.214844 8.304688 8.949219 8.210938 8.742188 8.019531 C 8.535156 7.828125 8.339844 7.527344 8.160156 7.125 C 8.027344 6.832031 7.917969 6.617188 7.832031 6.472656 C 7.746094 6.332031 7.664062 6.230469 7.578125 6.167969 C 7.496094 6.109375 7.390625 6.074219 7.261719 6.0625 L 7.191406 6.550781 C 7.097656 7.179688 6.917969 7.632812 6.652344 7.910156 C 6.386719 8.1875 6.019531 8.324219 5.554688 8.324219 C 5.25 8.324219 4.980469 8.25 4.746094 8.105469 C 4.507812 7.957031 4.34375 7.769531 4.253906 7.539062 C 4.222656 7.460938 4.207031 7.375 4.207031 7.28125 C 4.207031 7.148438 4.238281 7.035156 4.296875 6.9375 C 4.359375 6.84375 4.441406 6.792969 4.535156 6.792969 C 4.59375 6.792969 4.640625 6.808594 4.679688 6.835938 C 4.722656 6.863281 4.757812 6.914062 4.792969 6.984375 C 4.929688 7.238281 5.050781 7.417969 5.152344 7.519531 C 5.257812 7.621094 5.386719 7.671875 5.539062 7.671875 C 5.714844 7.671875 5.867188 7.589844 5.992188 7.429688 C 6.117188 7.269531 6.207031 7.023438 6.257812 6.6875 L 6.351562 6.0625 L 6.246094 6.0625 C 6.144531 6.0625 6.066406 6.03125 6.007812 5.976562 C 5.949219 5.917969 5.921875 5.839844 5.921875 5.738281 C 5.921875 5.625 5.953125 5.53125 6.011719 5.464844 C 6.070312 5.394531 6.144531 5.363281 6.234375 5.363281 L 6.449219 5.363281 C 6.480469 5.144531 6.503906 4.996094 6.515625 4.914062 L 6.722656 3.425781 C 6.605469 3.414062 6.5 3.40625 6.398438 3.40625 C 6.023438 3.40625 5.738281 3.472656 5.546875 3.601562 C 5.351562 3.730469 5.253906 3.917969 5.253906 4.160156 C 5.253906 4.269531 5.269531 4.359375 5.292969 4.425781 C 5.316406 4.496094 5.347656 4.570312 5.386719 4.65625 C 5.40625 4.691406 5.414062 4.730469 5.414062 4.773438 C 5.414062 4.871094 5.367188 4.957031 5.277344 5.027344 C 5.1875 5.101562 5.089844 5.136719 4.980469 5.136719 C 4.835938 5.136719 4.734375 5.074219 4.667969 4.953125 C 4.535156 4.71875 4.46875 4.46875 4.46875 4.199219 C 4.46875 3.921875 4.546875 3.667969 4.699219 3.441406 C 4.851562 3.210938 5.078125 3.027344 5.386719 2.890625 C 5.695312 2.75 6.078125 2.683594 6.53125 2.683594 C 6.726562 2.683594 6.910156 2.691406 7.074219 2.714844 C 7.238281 2.738281 7.421875 2.777344 7.617188 2.839844 C 7.835938 2.90625 7.941406 3.03125 7.941406 3.210938 C 7.941406 3.453125 7.839844 3.574219 7.632812 3.574219 L 7.375 5.347656 C 7.890625 5.296875 8.308594 5.074219 8.632812 4.683594 C 8.957031 4.296875 9.222656 3.765625 9.441406 3.097656 C 9.480469 2.972656 9.546875 2.878906 9.640625 2.8125 C 9.734375 2.746094 9.855469 2.714844 10 2.714844 C 10.125 2.714844 10.21875 2.742188 10.289062 2.796875 C 10.355469 2.851562 10.390625 2.929688 10.390625 3.03125 C 10.390625 3.0625 10.382812 3.113281 10.363281 3.183594 C 10.144531 3.910156 9.828125 4.484375 9.421875 4.914062 C 9.011719 5.339844 8.566406 5.625 8.082031 5.765625 C 8.246094 5.804688 8.386719 5.863281 8.492188 5.941406 C 8.601562 6.019531 8.691406 6.121094 8.765625 6.234375 C 8.84375 6.351562 8.925781 6.515625 9.023438 6.722656 C 9.160156 7.011719 9.289062 7.21875 9.40625 7.339844 C 9.527344 7.460938 9.664062 7.519531 9.824219 7.519531 C 9.964844 7.519531 10.097656 7.472656 10.226562 7.378906 C 10.351562 7.28125 10.515625 7.121094 10.707031 6.894531 C 10.761719 6.832031 10.820312 6.800781 10.886719 6.800781 Z M 10.886719 6.800781 "/>
</g>
</svg>
